<svg xmlns="http://www.w3.org/2000/svg" width="500" height="500" style="width:100%;height:100%;transform:translate3d(0,0,0);content-visibility:visible" viewBox="0 0 500 500"><defs><clipPath id="g"><path d="M0 0h500v500H0z"/></clipPath><clipPath id="j"><path d="M0 0h500v500H0z"/></clipPath><clipPath id="e"><path d="M0 0h500v500H0z"/></clipPath><clipPath id="h"><path d="M0 0h500v500H0z"/></clipPath><clipPath id="f"><path d="M0 0h500v500H0z"/></clipPath><filter id="a" width="100%" height="100%" x="0%" y="0%" filterUnits="objectBoundingBox"><feComponentTransfer in="SourceGraphic"><feFuncA tableValues="1.0 0.0" type="table"/></feComponentTransfer></filter><filter id="c" width="100%" height="100%" x="0%" y="0%" filterUnits="objectBoundingBox"><feComponentTransfer in="SourceGraphic"><feFuncA tableValues="1.0 0.0" type="table"/></feComponentTransfer></filter><mask id="k" mask-type="alpha"><g filter="url(#a)"><path fill="#fff" d="M0 0h500v500H0z" opacity="0"/><use xmlns:ns1="http://www.w3.org/1999/xlink" ns1:href="#b"/></g></mask><mask id="i" mask-type="alpha"><g filter="url(#c)"><path fill="#fff" d="M0 0h500v500H0z" opacity="0"/><use xmlns:ns2="http://www.w3.org/1999/xlink" ns2:href="#d"/></g></mask><g id="b" clip-path="url(#e)" style="display:none"><g class="primary design" style="display:none"><path fill-opacity="0" stroke-linecap="round" stroke-linejoin="round" class="primary"/></g><g class="primary design" style="display:none"><path class="primary"/><path fill-opacity="0" stroke-linecap="round" stroke-linejoin="round" class="primary"/></g></g><g id="d" clip-path="url(#f)" style="display:none"><g class="primary design" style="display:none"><path fill-opacity="0" stroke-linecap="round" stroke-linejoin="round" class="primary"/></g><g class="primary design" style="display:none"><path class="primary"/><path fill-opacity="0" stroke-linecap="round" stroke-linejoin="round" class="primary"/></g></g></defs><g clip-path="url(#g)"><g clip-path="url(#h)" style="display:block"><g class="primary design" mask="url(#i)" style="display:none"><path class="primary"/><path fill="none" class="primary"/></g><g class="primary design" style="display:block"><path fill="#121331" d="M245 41.7C130.229 44.616 38.993 140.226 41.7 255c2.708 113.106 95.61 203.3 208.3 203.3h5c114.772-2.916 206.008-98.526 203.3-213.3C455.384 130.229 360.816 38.785 245 41.7zm-15.83 291.62V250c0-11.457 9.373-20.83 20.83-20.83 11.457 0 20.83 9.373 20.83 20.83v83.32c0 11.457-9.373 20.83-20.83 20.83-11.457 0-20.83-9.373-20.83-20.83zm39.16-148.31a30.458 30.458 0 0 1-3.957 3.333c-1.25.833-2.916 1.667-4.375 2.292-1.666.833-3.332 1.25-4.999 1.666-1.666.208-3.333.417-4.999.417-6.874 0-13.54-2.708-18.33-7.708-1.25-1.041-2.292-2.5-3.333-3.957-.833-1.25-1.667-2.917-2.291-4.375-.834-1.666-1.25-3.332-1.667-4.999-.208-1.666-.416-3.333-.416-4.999 0-1.666.208-3.333.416-5 .417-1.666.833-3.332 1.667-4.998.624-1.459 1.458-3.125 2.29-4.375 1.042-1.458 2.084-2.916 3.334-3.957 6.04-6.041 14.997-8.957 23.33-7.29 1.666.416 3.332.832 4.998 1.665 1.459.625 3.125 1.459 4.375 2.292a30.459 30.459 0 0 1 3.957 3.333c1.25 1.041 2.292 2.5 3.333 3.957.833 1.25 1.667 2.916 2.291 4.375.834 1.666 1.25 3.332 1.667 4.999.208 1.666.416 3.333.416 4.999 0 1.666-.208 3.333-.416 5-.417 1.666-.833 3.332-1.667 4.998-.624 1.458-1.458 3.125-2.29 4.375-1.042 1.458-2.084 2.916-3.334 3.957z" class="primary"/></g><g class="primary design" style="display:none"><path class="primary"/></g></g><g clip-path="url(#j)" style="display:none"><g class="primary design" mask="url(#k)" style="display:none"><path class="primary"/><path fill="none" class="primary"/></g><g class="primary design" style="display:none"><path class="primary"/></g></g></g></svg>